STARTFONT 2.1
FONT -FontForge-04b21-Book-R-Normal--8-80-75-75-P-52-ISO10646-1
SIZE 8 75 75
FONTBOUNDINGBOX 6 6 0 0
COMMENT "Generated by fontforge, http://fontforge.sourceforge.net"
COMMENT "1999-2003 / yuji oshimoo / 04@dsg4.com / www.04.jp.org"
STARTPROPERTIES 39
FOUNDRY "FontForge"
FAMILY_NAME "04b21"
WEIGHT_NAME "Book"
SLANT "R"
SETWIDTH_NAME "Normal"
ADD_STYLE_NAME ""
PIXEL_SIZE 8
POINT_SIZE 80
RESOLUTION_X 75
RESOLUTION_Y 75
SPACING "P"
AVERAGE_WIDTH 52
CHARSET_REGISTRY "ISO10646"
CHARSET_ENCODING "1"
FONTNAME_REGISTRY ""
CHARSET_COLLECTIONS "ISO10646-1"
FONT_NAME "04b21"
FACE_NAME "04b21"
COPYRIGHT "1999-2003 / yuji oshimoo / 04@dsg4.com / www.04.jp.org"
FONT_VERSION "Macromedia Fonographer 4.1J 03.3.25"
FONT_ASCENT 6
FONT_DESCENT 2
UNDERLINE_POSITION -1
UNDERLINE_THICKNESS 1
X_HEIGHT 4
CAP_HEIGHT 4
RAW_ASCENT 750
RAW_DESCENT 250
NORM_SPACE 4
RELATIVE_WEIGHT 40
RELATIVE_SETWIDTH 50
SUPERSCRIPT_X 0
SUPERSCRIPT_Y 3
SUPERSCRIPT_SIZE 5
SUBSCRIPT_X 0
SUBSCRIPT_Y 1
SUBSCRIPT_SIZE 5
AVG_LOWERCASE_WIDTH 60
AVG_UPPERCASE_WIDTH 59
ENDPROPERTIES
CHARS 100
STARTCHAR space
ENCODING 32
SWIDTH 500 0
DWIDTH 4 0
BBX 1 1 0 0
BITMAP
00
ENDCHAR
STARTCHAR exclam
ENCODING 33
SWIDTH 500 0
DWIDTH 4 0
BBX 1 5 1 0
BITMAP
80
80
80
00
80
ENDCHAR
STARTCHAR quotedbl
ENCODING 34
SWIDTH 500 0
DWIDTH 4 0
BBX 3 2 0 3
BITMAP
A0
A0
ENDCHAR
STARTCHAR numbersign
ENCODING 35
SWIDTH 750 0
DWIDTH 6 0
BBX 5 5 0 0
BITMAP
50
F8
50
F8
50
ENDCHAR
STARTCHAR dollar
ENCODING 36
SWIDTH 750 0
DWIDTH 6 0
BBX 5 5 0 0
BITMAP
78
A0
70
28
F0
ENDCHAR
STARTCHAR percent
ENCODING 37
SWIDTH 750 0
DWIDTH 6 0
BBX 5 5 0 0
BITMAP
88
10
20
40
88
ENDCHAR
STARTCHAR ampersand
ENCODING 38
SWIDTH 875 0
DWIDTH 7 0
BBX 6 5 0 0
BITMAP
60
90
64
98
74
ENDCHAR
STARTCHAR quotesingle
ENCODING 39
SWIDTH 250 0
DWIDTH 2 0
BBX 1 2 0 3
BITMAP
80
80
ENDCHAR
STARTCHAR parenleft
ENCODING 40
SWIDTH 375 0
DWIDTH 3 0
BBX 2 5 0 0
BITMAP
40
80
80
80
40
ENDCHAR
STARTCHAR parenright
ENCODING 41
SWIDTH 375 0
DWIDTH 3 0
BBX 2 5 0 0
BITMAP
80
40
40
40
80
ENDCHAR
STARTCHAR asterisk
ENCODING 42
SWIDTH 500 0
DWIDTH 4 0
BBX 3 3 0 2
BITMAP
A0
40
A0
ENDCHAR
STARTCHAR plus
ENCODING 43
SWIDTH 750 0
DWIDTH 6 0
BBX 5 5 0 0
BITMAP
20
20
F8
20
20
ENDCHAR
STARTCHAR comma
ENCODING 44
SWIDTH 250 0
DWIDTH 2 0
BBX 1 2 0 0
BITMAP
80
80
ENDCHAR
STARTCHAR hyphen
ENCODING 45
SWIDTH 750 0
DWIDTH 6 0
BBX 5 1 0 2
BITMAP
F8
ENDCHAR
STARTCHAR period
ENCODING 46
SWIDTH 250 0
DWIDTH 2 0
BBX 1 1 0 0
BITMAP
80
ENDCHAR
STARTCHAR slash
ENCODING 47
SWIDTH 750 0
DWIDTH 6 0
BBX 5 5 0 0
BITMAP
08
10
20
40
80
ENDCHAR
STARTCHAR zero
ENCODING 48
SWIDTH 750 0
DWIDTH 6 0
BBX 5 5 0 0
BITMAP
70
88
88
88
70
ENDCHAR
STARTCHAR one
ENCODING 49
SWIDTH 375 0
DWIDTH 3 0
BBX 2 5 0 0
BITMAP
40
C0
40
40
40
ENDCHAR
STARTCHAR two
ENCODING 50
SWIDTH 750 0
DWIDTH 6 0
BBX 5 5 0 0
BITMAP
F0
08
70
80
F8
ENDCHAR
STARTCHAR three
ENCODING 51
SWIDTH 750 0
DWIDTH 6 0
BBX 5 5 0 0
BITMAP
F0
08
70
08
F0
ENDCHAR
STARTCHAR four
ENCODING 52
SWIDTH 750 0
DWIDTH 6 0
BBX 5 5 0 0
BITMAP
30
50
90
F8
10
ENDCHAR
STARTCHAR five
ENCODING 53
SWIDTH 750 0
DWIDTH 6 0
BBX 5 5 0 0
BITMAP
F8
80
F0
08
F0
ENDCHAR
STARTCHAR six
ENCODING 54
SWIDTH 750 0
DWIDTH 6 0
BBX 5 5 0 0
BITMAP
70
80
F0
88
70
ENDCHAR
STARTCHAR seven
ENCODING 55
SWIDTH 750 0
DWIDTH 6 0
BBX 5 5 0 0
BITMAP
F8
08
10
20
40
ENDCHAR
STARTCHAR eight
ENCODING 56
SWIDTH 750 0
DWIDTH 6 0
BBX 5 5 0 0
BITMAP
70
88
70
88
70
ENDCHAR
STARTCHAR nine
ENCODING 57
SWIDTH 750 0
DWIDTH 6 0
BBX 5 5 0 0
BITMAP
70
88
78
08
70
ENDCHAR
STARTCHAR colon
ENCODING 58
SWIDTH 250 0
DWIDTH 2 0
BBX 1 3 0 1
BITMAP
80
00
80
ENDCHAR
STARTCHAR semicolon
ENCODING 59
SWIDTH 250 0
DWIDTH 2 0
BBX 1 4 0 0
BITMAP
80
00
80
80
ENDCHAR
STARTCHAR less
ENCODING 60
SWIDTH 500 0
DWIDTH 4 0
BBX 3 5 0 0
BITMAP
20
40
80
40
20
ENDCHAR
STARTCHAR equal
ENCODING 61
SWIDTH 750 0
DWIDTH 6 0
BBX 5 3 0 1
BITMAP
F8
00
F8
ENDCHAR
STARTCHAR greater
ENCODING 62
SWIDTH 500 0
DWIDTH 4 0
BBX 3 5 0 0
BITMAP
80
40
20
40
80
ENDCHAR
STARTCHAR question
ENCODING 63
SWIDTH 625 0
DWIDTH 5 0
BBX 4 5 0 0
BITMAP
E0
10
60
00
40
ENDCHAR
STARTCHAR at
ENCODING 64
SWIDTH 750 0
DWIDTH 6 0
BBX 5 5 0 0
BITMAP
70
88
B8
A8
78
ENDCHAR
STARTCHAR A
ENCODING 65
SWIDTH 750 0
DWIDTH 6 0
BBX 5 5 0 0
BITMAP
70
88
F8
88
88
ENDCHAR
STARTCHAR B
ENCODING 66
SWIDTH 750 0
DWIDTH 6 0
BBX 5 5 0 0
BITMAP
F0
88
F0
88
F0
ENDCHAR
STARTCHAR C
ENCODING 67
SWIDTH 750 0
DWIDTH 6 0
BBX 5 5 0 0
BITMAP
70
88
80
88
70
ENDCHAR
STARTCHAR D
ENCODING 68
SWIDTH 750 0
DWIDTH 6 0
BBX 5 5 0 0
BITMAP
F0
88
88
88
F0
ENDCHAR
STARTCHAR E
ENCODING 69
SWIDTH 750 0
DWIDTH 6 0
BBX 5 5 0 0
BITMAP
78
80
F8
80
78
ENDCHAR
STARTCHAR F
ENCODING 70
SWIDTH 750 0
DWIDTH 6 0
BBX 5 5 0 0
BITMAP
78
80
F8
80
80
ENDCHAR
STARTCHAR G
ENCODING 71
SWIDTH 750 0
DWIDTH 6 0
BBX 5 5 0 0
BITMAP
78
80
B8
88
78
ENDCHAR
STARTCHAR H
ENCODING 72
SWIDTH 750 0
DWIDTH 6 0
BBX 5 5 0 0
BITMAP
88
88
F8
88
88
ENDCHAR
STARTCHAR I
ENCODING 73
SWIDTH 500 0
DWIDTH 4 0
BBX 3 5 0 0
BITMAP
E0
40
40
40
E0
ENDCHAR
STARTCHAR J
ENCODING 74
SWIDTH 750 0
DWIDTH 6 0
BBX 5 5 0 0
BITMAP
38
08
08
88
70
ENDCHAR
STARTCHAR K
ENCODING 75
SWIDTH 750 0
DWIDTH 6 0
BBX 5 5 0 0
BITMAP
88
90
E0
90
88
ENDCHAR
STARTCHAR L
ENCODING 76
SWIDTH 750 0
DWIDTH 6 0
BBX 5 5 0 0
BITMAP
80
80
80
80
F8
ENDCHAR
STARTCHAR M
ENCODING 77
SWIDTH 750 0
DWIDTH 6 0
BBX 5 5 0 0
BITMAP
88
D8
A8
88
88
ENDCHAR
STARTCHAR N
ENCODING 78
SWIDTH 750 0
DWIDTH 6 0
BBX 5 5 0 0
BITMAP
88
C8
A8
98
88
ENDCHAR
STARTCHAR O
ENCODING 79
SWIDTH 750 0
DWIDTH 6 0
BBX 5 5 0 0
BITMAP
70
88
88
88
70
ENDCHAR
STARTCHAR P
ENCODING 80
SWIDTH 750 0
DWIDTH 6 0
BBX 5 5 0 0
BITMAP
F0
88
F0
80
80
ENDCHAR
STARTCHAR Q
ENCODING 81
SWIDTH 750 0
DWIDTH 6 0
BBX 5 5 0 0
BITMAP
70
88
88
98
78
ENDCHAR
STARTCHAR R
ENCODING 82
SWIDTH 750 0
DWIDTH 6 0
BBX 5 5 0 0
BITMAP
F0
88
F0
90
88
ENDCHAR
STARTCHAR S
ENCODING 83
SWIDTH 750 0
DWIDTH 6 0
BBX 5 5 0 0
BITMAP
78
80
70
08
F0
ENDCHAR
STARTCHAR T
ENCODING 84
SWIDTH 750 0
DWIDTH 6 0
BBX 5 5 0 0
BITMAP
F8
20
20
20
20
ENDCHAR
STARTCHAR U
ENCODING 85
SWIDTH 750 0
DWIDTH 6 0
BBX 5 5 0 0
BITMAP
88
88
88
88
70
ENDCHAR
STARTCHAR V
ENCODING 86
SWIDTH 750 0
DWIDTH 6 0
BBX 5 5 0 0
BITMAP
88
88
88
50
20
ENDCHAR
STARTCHAR W
ENCODING 87
SWIDTH 750 0
DWIDTH 6 0
BBX 5 5 0 0
BITMAP
A8
A8
A8
A8
50
ENDCHAR
STARTCHAR X
ENCODING 88
SWIDTH 750 0
DWIDTH 6 0
BBX 5 5 0 0
BITMAP
88
50
20
50
88
ENDCHAR
STARTCHAR Y
ENCODING 89
SWIDTH 750 0
DWIDTH 6 0
BBX 5 5 0 0
BITMAP
88
88
50
20
20
ENDCHAR
STARTCHAR Z
ENCODING 90
SWIDTH 750 0
DWIDTH 6 0
BBX 5 5 0 0
BITMAP
F8
10
20
40
F8
ENDCHAR
STARTCHAR bracketleft
ENCODING 91
SWIDTH 375 0
DWIDTH 3 0
BBX 2 5 0 0
BITMAP
C0
80
80
80
C0
ENDCHAR
STARTCHAR backslash
ENCODING 92
SWIDTH 750 0
DWIDTH 6 0
BBX 5 5 0 0
BITMAP
80
40
20
10
08
ENDCHAR
STARTCHAR bracketright
ENCODING 93
SWIDTH 375 0
DWIDTH 3 0
BBX 2 5 0 0
BITMAP
C0
40
40
40
C0
ENDCHAR
STARTCHAR asciicircum
ENCODING 94
SWIDTH 500 0
DWIDTH 4 0
BBX 3 2 0 3
BITMAP
40
A0
ENDCHAR
STARTCHAR underscore
ENCODING 95
SWIDTH 750 0
DWIDTH 6 0
BBX 5 1 0 0
BITMAP
F8
ENDCHAR
STARTCHAR grave
ENCODING 96
SWIDTH 375 0
DWIDTH 3 0
BBX 2 2 0 3
BITMAP
80
40
ENDCHAR
STARTCHAR a
ENCODING 97
SWIDTH 750 0
DWIDTH 6 0
BBX 5 5 0 0
BITMAP
50
F8
A8
F8
50
ENDCHAR
STARTCHAR b
ENCODING 98
SWIDTH 750 0
DWIDTH 6 0
BBX 5 5 0 0
BITMAP
F8
A8
F8
70
D8
ENDCHAR
STARTCHAR c
ENCODING 99
SWIDTH 750 0
DWIDTH 6 0
BBX 5 5 0 0
BITMAP
70
A8
F8
88
50
ENDCHAR
STARTCHAR d
ENCODING 100
SWIDTH 750 0
DWIDTH 6 0
BBX 5 5 0 0
BITMAP
70
F8
A8
F8
50
ENDCHAR
STARTCHAR e
ENCODING 101
SWIDTH 750 0
DWIDTH 6 0
BBX 5 5 0 0
BITMAP
70
A8
F8
F8
A8
ENDCHAR
STARTCHAR f
ENCODING 102
SWIDTH 750 0
DWIDTH 6 0
BBX 5 5 0 0
BITMAP
F8
A8
F8
50
88
ENDCHAR
STARTCHAR g
ENCODING 103
SWIDTH 750 0
DWIDTH 6 0
BBX 5 5 0 0
BITMAP
D8
70
A8
70
D8
ENDCHAR
STARTCHAR h
ENCODING 104
SWIDTH 750 0
DWIDTH 6 0
BBX 5 5 0 0
BITMAP
70
A8
F8
70
A8
ENDCHAR
STARTCHAR i
ENCODING 105
SWIDTH 750 0
DWIDTH 6 0
BBX 5 5 0 0
BITMAP
A8
F8
A8
70
D8
ENDCHAR
STARTCHAR j
ENCODING 106
SWIDTH 750 0
DWIDTH 6 0
BBX 5 5 0 0
BITMAP
20
70
F8
70
A8
ENDCHAR
STARTCHAR k
ENCODING 107
SWIDTH 750 0
DWIDTH 6 0
BBX 5 5 0 0
BITMAP
20
F8
F8
20
70
ENDCHAR
STARTCHAR l
ENCODING 108
SWIDTH 750 0
DWIDTH 6 0
BBX 5 5 0 0
BITMAP
20
70
F8
20
50
ENDCHAR
STARTCHAR m
ENCODING 109
SWIDTH 750 0
DWIDTH 6 0
BBX 5 5 0 0
BITMAP
20
70
F8
F8
A8
ENDCHAR
STARTCHAR n
ENCODING 110
SWIDTH 750 0
DWIDTH 6 0
BBX 5 5 0 0
BITMAP
20
70
F8
F8
50
ENDCHAR
STARTCHAR o
ENCODING 111
SWIDTH 750 0
DWIDTH 6 0
BBX 5 5 0 0
BITMAP
50
20
70
F8
F8
ENDCHAR
STARTCHAR p
ENCODING 112
SWIDTH 750 0
DWIDTH 6 0
BBX 5 5 0 0
BITMAP
20
70
70
A8
F8
ENDCHAR
STARTCHAR q
ENCODING 113
SWIDTH 750 0
DWIDTH 6 0
BBX 5 5 0 0
BITMAP
A8
F8
F8
70
A8
ENDCHAR
STARTCHAR r
ENCODING 114
SWIDTH 750 0
DWIDTH 6 0
BBX 5 5 0 0
BITMAP
50
20
F8
F8
50
ENDCHAR
STARTCHAR s
ENCODING 115
SWIDTH 750 0
DWIDTH 6 0
BBX 5 5 0 0
BITMAP
70
88
88
88
70
ENDCHAR
STARTCHAR t
ENCODING 116
SWIDTH 750 0
DWIDTH 6 0
BBX 5 5 0 0
BITMAP
88
50
20
50
88
ENDCHAR
STARTCHAR u
ENCODING 117
SWIDTH 750 0
DWIDTH 6 0
BBX 5 5 0 0
BITMAP
F8
88
88
88
F8
ENDCHAR
STARTCHAR v
ENCODING 118
SWIDTH 750 0
DWIDTH 6 0
BBX 5 5 0 0
BITMAP
20
50
50
88
F8
ENDCHAR
STARTCHAR w
ENCODING 119
SWIDTH 750 0
DWIDTH 6 0
BBX 5 5 0 0
BITMAP
20
30
F8
30
20
ENDCHAR
STARTCHAR x
ENCODING 120
SWIDTH 750 0
DWIDTH 6 0
BBX 5 5 0 0
BITMAP
20
10
F8
10
20
ENDCHAR
STARTCHAR y
ENCODING 121
SWIDTH 750 0
DWIDTH 6 0
BBX 5 5 0 0
BITMAP
A0
B0
B8
B0
A0
ENDCHAR
STARTCHAR z
ENCODING 122
SWIDTH 750 0
DWIDTH 6 0
BBX 5 5 0 0
BITMAP
70
D8
F0
F8
70
ENDCHAR
STARTCHAR braceleft
ENCODING 123
SWIDTH 500 0
DWIDTH 4 0
BBX 3 5 0 0
BITMAP
60
40
80
40
60
ENDCHAR
STARTCHAR bar
ENCODING 124
SWIDTH 250 0
DWIDTH 2 0
BBX 1 5 0 0
BITMAP
80
80
80
80
80
ENDCHAR
STARTCHAR braceright
ENCODING 125
SWIDTH 500 0
DWIDTH 4 0
BBX 3 5 0 0
BITMAP
C0
40
20
40
C0
ENDCHAR
STARTCHAR asciitilde
ENCODING 126
SWIDTH 625 0
DWIDTH 5 0
BBX 4 2 0 3
BITMAP
50
A0
ENDCHAR
STARTCHAR nonbreakingspace
ENCODING 160
SWIDTH 625 0
DWIDTH 5 0
BBX 1 1 0 0
BITMAP
00
ENDCHAR
STARTCHAR hyphen.dup1
ENCODING 8208
SWIDTH 750 0
DWIDTH 6 0
BBX 5 1 0 2
BITMAP
F8
ENDCHAR
STARTCHAR .notdef
ENCODING -1
SWIDTH 500 0
DWIDTH 4 0
BBX 3 6 0 0
BITMAP
E0
A0
A0
A0
A0
E0
ENDCHAR
STARTCHAR .null
ENCODING -1
SWIDTH 0 0
DWIDTH 0 0
BBX 1 1 0 0
BITMAP
00
ENDCHAR
STARTCHAR nonmarkingreturn
ENCODING -1
SWIDTH 500 0
DWIDTH 4 0
BBX 1 1 0 0
BITMAP
00
ENDCHAR
ENDFONT
